<svg width="292" height="144" viewBox="0 0 292 144" fill="none" xmlns="http://www.w3.org/2000/svg">
<rect x="0.75" y="0.75" width="290.5" height="142.5" rx="9.25" fill="#F9F8FF"/>
<rect x="24" y="32" width="80" height="80" rx="12" fill="#7552F7"/>
<path opacity="0.6" d="M88.9925 61.935C89.135 59.41 87.355 57.0925 84.845 56.68C74.415 54.9725 75.2175 47 64 47C52.7825 47 53.585 54.9725 43.155 56.68C40.6475 57.09 38.865 59.4075 39.0075 61.935C40.0825 81.01 47.755 90.0725 64 97C80.245 90.0725 87.9175 81.01 88.9925 61.935Z" fill="white"/>
<path d="M74 67C74 61.475 69.525 57 64 57C58.475 57 54 61.475 54 67C52.625 67 51.5 68.125 51.5 69.5V79.5C51.5 80.875 52.625 82 54 82H74C75.375 82 76.5 80.875 76.5 79.5V69.5C76.5 68.125 75.375 67 74 67ZM66.5 74.5C66.5 75.875 65.375 77 64 77C62.625 77 61.5 75.875 61.5 74.5C61.5 73.125 62.625 72 64 72C65.375 72 66.5 73.125 66.5 74.5ZM59 67C59 64.25 61.25 62 64 62C66.75 62 69 64.25 69 67H59Z" fill="white"/>
<path d="M127.104 70V61.168H135.904V57.104H127.072V51.504H136.992V47.312H122.656V70H127.104ZM155.083 70V65.84H145.291V60.592H154.155V56.656H145.291V51.472H155.083V47.312H140.875V70H155.083ZM170.606 70H175.534L170.67 60.72C173.646 59.856 175.502 57.456 175.502 54.288C175.502 50.352 172.686 47.312 168.27 47.312H159.406V70H163.854V61.264H166.158L170.606 70ZM163.854 57.456V51.152H167.438C169.678 51.152 170.99 52.4 170.99 54.32C170.99 56.176 169.678 57.456 167.438 57.456H163.854ZM184.01 57.648V51.152H187.498C189.706 51.152 191.05 52.4 191.05 54.416C191.05 56.368 189.706 57.648 187.498 57.648H184.01ZM188.042 61.456C192.522 61.456 195.498 58.512 195.498 54.384C195.498 50.288 192.522 47.312 188.042 47.312H179.562V70H183.978V61.456H188.042ZM212.515 70H217.315L208.675 47.312H203.555L194.851 70H199.523L201.411 64.816H210.627L212.515 70ZM206.019 52.208L209.155 60.784H202.883L206.019 52.208Z" fill="#1F2933"/>
<path d="M127.182 96.252C130.098 96.252 132.132 94.542 132.78 92.148L131.448 91.662C130.926 93.498 129.45 94.866 127.182 94.866C124.752 94.866 122.412 93.084 122.412 89.61C122.412 86.154 124.752 84.372 127.182 84.372C129.36 84.372 130.872 85.524 131.358 87.522L132.762 87.036C132.132 84.588 130.08 82.986 127.182 82.986C124.032 82.986 120.9 85.344 120.9 89.61C120.9 93.876 123.942 96.252 127.182 96.252ZM135.842 89.61C135.842 86.154 138.182 84.372 140.648 84.372C143.132 84.372 145.454 86.154 145.454 89.61C145.454 93.084 143.132 94.866 140.648 94.866C138.182 94.866 135.842 93.084 135.842 89.61ZM134.33 89.61C134.33 93.876 137.48 96.252 140.648 96.252C143.834 96.252 146.966 93.876 146.966 89.61C146.966 85.344 143.834 82.986 140.648 82.986C137.48 82.986 134.33 85.344 134.33 89.61ZM163.251 96V83.238H161.199L156.429 93.984L151.695 83.238H149.625V96H151.137V85.614L155.727 96H157.113L161.739 85.614V96H163.251ZM168.294 89.358V84.588H170.994C172.632 84.588 173.64 85.542 173.64 87C173.64 88.404 172.632 89.358 170.994 89.358H168.294ZM171.228 90.708C173.586 90.708 175.152 89.124 175.152 86.982C175.152 84.858 173.586 83.238 171.228 83.238H166.782V96H168.294V90.708H171.228ZM185.173 96V94.614H178.981V83.238H177.469V96H185.173ZM188.807 96V83.238H187.295V96H188.807ZM201.304 96H202.942L197.812 83.238H196.048L190.936 96H192.574L193.996 92.274H199.846L201.304 96ZM196.912 84.786L199.306 90.888H194.536L196.912 84.786ZM215.381 96V83.238H213.869V93.462L207.029 83.238H205.049V96H206.561V85.2L213.797 96H215.381ZM227.721 84.624V83.238H217.479V84.624H221.853V96H223.347V84.624H227.721Z" fill="#6C7583"/>
<rect x="0.75" y="0.75" width="290.5" height="142.5" rx="9.25" stroke="#D6CBFD" stroke-width="1.5"/>
</svg>
